<svg width="27" height="21" viewBox="0 0 27 21" fill="none" xmlns="http://www.w3.org/2000/svg">
<path fill-rule="evenodd" clip-rule="evenodd" d="M19.6804 20.3769C24.726 20.2126 26.6667 16.8103 26.6667 16.8103C26.6667 9.25485 23.379 3.13069 23.379 3.13069C20.0913 0.596551 16.9635 0.666943 16.9635 0.666943L16.6438 1.04237C20.5251 2.26251 22.3288 4.02233 22.3288 4.02233C19.9543 2.68487 17.6256 2.02787 15.4566 1.76976C13.8128 1.58205 12.2374 1.62898 10.8447 1.81669L10.4566 1.86362C9.65753 1.93401 7.71689 2.23905 5.27397 3.34187C4.42922 3.74076 3.92694 4.02233 3.92694 4.02233C3.92694 4.02233 5.82192 2.16865 9.93151 0.948514L9.7032 0.666943C9.7032 0.666943 6.57534 0.596551 3.28767 3.13069C3.28767 3.13069 0 9.25485 0 16.8103C0 16.8103 1.91781 20.2126 6.96347 20.3769C6.96347 20.3769 7.80822 19.321 8.49315 18.4294C5.59361 17.5377 4.49772 15.6606 4.49772 15.6606L5.13699 16.0595L5.22831 16.1299L5.31773 16.1827L5.34437 16.1944L5.43379 16.2472C6.00457 16.5757 6.57534 16.8338 7.10046 17.045C8.03653 17.4204 9.15525 17.7958 10.4566 18.0539C12.169 18.3824 14.1781 18.4998 16.3699 18.0774C17.4429 17.8897 18.5388 17.5612 19.6804 17.0684C20.4795 16.7634 21.3699 16.3176 22.3059 15.684C22.3059 15.684 21.1644 17.6081 18.1735 18.4763C18.8584 19.3679 19.6804 20.3769 19.6804 20.3769ZM9.06393 9.4191C7.76256 9.4191 6.73516 10.5923 6.73516 12.0236C6.73516 13.4549 7.78539 14.6282 9.06393 14.6282C10.3653 14.6282 11.3927 13.4549 11.3927 12.0236C11.4155 10.5923 10.3653 9.4191 9.06393 9.4191ZM17.3973 9.4191C16.0959 9.4191 15.0685 10.5923 15.0685 12.0236C15.0685 13.4549 16.1187 14.6282 17.3973 14.6282C18.6986 14.6282 19.726 13.4549 19.726 12.0236C19.726 10.5923 18.6986 9.4191 17.3973 9.4191Z" fill="black"/>
</svg>
