<svg width="28" height="23" viewBox="0 0 28 23" fill="none" xmlns="http://www.w3.org/2000/svg">
<path d="M27.3334 3.2323C26.3522 3.66786 25.2978 3.96119 24.1911 4.09341C25.3211 3.41675 26.1889 2.34453 26.5967 1.06675C25.54 1.69341 24.3689 2.14897 23.1222 2.39453C22.1256 1.33119 20.7022 0.666748 19.1289 0.666748C15.5967 0.666748 13.0011 3.9623 13.7989 7.38341C9.25335 7.15564 5.22224 4.97786 2.52335 1.66786C1.09002 4.12675 1.78002 7.34341 4.21558 8.9723C3.32002 8.94341 2.47558 8.69786 1.73891 8.28786C1.67891 10.8223 3.49558 13.1934 6.12669 13.7212C5.35669 13.9301 4.51335 13.979 3.65558 13.8145C4.35113 15.9879 6.37113 17.569 8.76669 17.6134C6.46669 19.4167 3.56891 20.2223 0.666687 19.8801C3.0878 21.4323 5.96446 22.3379 9.05335 22.3379C19.2111 22.3379 24.95 13.759 24.6034 6.06452C25.6722 5.2923 26.6 4.32897 27.3334 3.2323Z" fill="black"/>
</svg>
