<svg width="26" height="25" viewBox="0 0 26 25" fill="none" xmlns="http://www.w3.org/2000/svg">
<path d="M20.4972 5.7121C20.3554 5.76853 20.2211 5.84237 20.0975 5.93192C19.1916 6.77125 18.2956 7.6239 17.393 8.46989L8.30027 17.0064L0.333313 14.0687L25.3133 0C24.011 7.32747 22.7221 14.545 21.4231 21.8425C19.5146 21.1764 17.6528 20.4436 15.731 19.7642L11.2512 25C11.2512 23.2747 11.2512 21.6693 11.2512 20.0673C11.2512 19.4011 11.2746 18.735 11.2846 18.0955C11.6642 17.5793 12.0373 17.063 12.417 16.5501C15.0815 12.9974 17.7383 9.43134 20.3873 5.85198C20.4206 5.80536 20.4472 5.74873 20.4805 5.69877L20.5038 5.67546C20.5072 5.64215 20.5038 5.68212 20.4972 5.7121Z" fill="black"/>
</svg>
